HIERARCHY
ROOT Hips
{
	OFFSET 0.000000 0.000000 0.000000
	CHANNELS 6 Xposition Yposition Zposition Zrotation Yrotation Xrotation 
	JOINT LHipJoint
	{
		OFFSET 0.000000 0.000000 0.000000
		CHANNELS 3 Zrotation Yrotation Xrotation
		JOINT LeftUpLeg
		{
			OFFSET 1.363060 -1.794630 0.839290
			CHANNELS 3 Zrotation Yrotation Xrotation
			JOINT LeftLeg
			{
				OFFSET 2.448110 -6.726130 0.000000
				CHANNELS 3 Zrotation Yrotation Xrotation
				JOINT LeftFoot
				{
					OFFSET 2.562200 -7.039590 0.000000
					CHANNELS 3 Zrotation Yrotation Xrotation
					JOINT LeftToeBase
					{
						OFFSET 0.157640 -0.433110 2.322550
						CHANNELS 3 Zrotation Yrotation Xrotation
						End Site
						{
							OFFSET 0.000000 0.000000 0.000000
						}
					}
				}
			}
		}
	}
	JOINT RHipJoint
	{
		OFFSET 0.000000 0.000000 0.000000
		CHANNELS 3 Zrotation Yrotation Xrotation
		JOINT RightUpLeg
		{
			OFFSET -1.305520 -1.794630 0.839290
			CHANNELS 3 Zrotation Yrotation Xrotation
			JOINT RightLeg
			{
				OFFSET -2.542530 -6.985550 0.000000
				CHANNELS 3 Zrotation Yrotation Xrotation
				JOINT RightFoot
				{
					OFFSET -2.568260 -7.056230 0.000000
					CHANNELS 3 Zrotation Yrotation Xrotation
					JOINT RightToeBase
					{
						OFFSET -0.164730 -0.452590 2.363150
						CHANNELS 3 Zrotation Yrotation Xrotation
						End Site
						{
							OFFSET 0.000000 0.000000 0.000000
						}
					}
				}
			}
		}
	}
}
MOTION
Frames: 16
Frame Time: 0.008333
24.140315 16.945368 1.785687 16.873896 -88.549409 12.516698 -9.137034 -0.016243 3.945861 -3.673612 -13.148010 -36.555137 -1.103849 -0.594647 22.259930 4.179214 16.392094 -21.873374 -3.874700 0.000000 -32.813100 7.653476 0.383030 3.615822 5.592290 13.576456 -35.072340 1.789610 0.603880 22.697982 -4.141069 -9.854633 -26.252391 3.400600 0.000000 -50.068200
24.125121 16.883138 1.785719 20.321276 -88.466396 9.729879 -8.976369 -0.074817 3.993803 -3.618860 -13.855840 -38.221699 -1.082643 -0.468808 24.497172 4.341916 16.642791 -23.204869 -4.340100 0.000000 -32.418800 7.722381 0.500579 3.706049 5.076468 14.174313 -37.086262 1.671499 0.329333 25.528532 -4.259017 -9.919039 -27.550975 3.692700 -0.000000 -49.121900
24.109879 16.811019 1.784891 23.897288 -88.340774 6.807083 -8.824185 -0.135625 4.034303 -3.600154 -14.518327 -39.981520 -1.066696 -0.325713 26.909032 4.492857 16.815589 -24.597185 -4.819400 0.000000 -31.803399 7.800653 0.619911 3.787752 4.550594 14.680003 -39.148361 1.552129 0.045657 28.451073 -4.364067 -9.968430 -28.840039 3.978000 0.000000 -47.981700
24.095020 16.728428 1.783562 27.403361 -88.173379 3.948072 -8.687348 -0.199222 4.072411 -3.612467 -15.140847 -41.833069 -1.051842 -0.164733 29.482367 4.633341 16.928149 -26.032073 -5.305201 -0.000000 -30.917400 7.883250 0.739901 3.861695 4.025344 15.089542 -41.253687 1.431238 -0.244033 31.453738 -4.461318 -10.024184 -30.118717 4.261300 -0.000001 -46.599299
24.079650 16.634705 1.782129 30.649092 -87.969909 1.353685 -8.570219 -0.265273 4.113931 -3.645689 -15.730242 -43.782790 -1.033217 0.014382 32.203969 4.765561 17.002479 -27.489225 -5.791400 0.000001 -29.738800 7.966492 0.861079 3.930980 3.507706 15.409644 -43.407506 1.306881 -0.536900 34.532090 -4.557223 -10.111300 -31.389517 4.551100 -0.000000 -44.908699
24.064196 16.529491 1.781037 33.467087 -87.737972 -0.806586 -8.474994 -0.333448 4.164444 -3.686284 -16.293837 -45.832668 -1.005377 0.211262 35.058923 4.892051 17.064455 -28.944354 -6.273500 -0.000000 -28.281200 8.048447 0.984146 3.999128 3.005677 15.648462 -45.612166 1.176968 -0.830667 37.678334 -4.656657 -10.251364 -32.647151 4.854800 -0.000000 -42.914000
24.048065 16.412375 1.780692 35.766360 -87.486256 -2.430118 -8.401626 -0.403520 4.229168 -3.718758 -16.837779 -47.989653 -0.962872 0.424444 38.032645 5.015239 17.138669 -30.372289 -6.748300 0.000001 -26.599900 8.128609 1.109963 4.071643 2.522573 15.820750 -47.876982 1.038685 -1.123600 40.888117 -4.763532 -10.462210 -33.886694 5.180200 -0.000000 -40.623200
24.031394 16.283174 1.781448 37.521516 -87.222983 -3.485967 -8.348854 -0.476242 4.312148 -3.728112 -17.366958 -50.256860 -0.900596 0.651598 41.108483 5.136871 17.247082 -31.745702 -7.213800 -0.000000 -24.789700 8.206995 1.238868 4.153999 2.059449 15.941879 -50.208657 0.889502 -1.414577 44.153270 -4.879240 -10.753812 -35.097037 5.531800 0.000001 -38.095000
24.013868 16.141921 1.783596 38.753656 -86.956184 -3.989673 -8.315130 -0.552876 4.416199 -3.700656 -17.882999 -52.633888 -0.814367 0.889780 44.268705 5.257740 17.405980 -33.039197 -7.668300 0.000000 -22.972200 8.283698 1.370409 4.251076 1.616392 16.025427 -52.611207 0.727356 -1.702739 47.461097 -5.002113 -11.126009 -36.257685 5.908200 0.000000 -35.489400
23.995237 15.988740 1.787266 39.554618 -86.695422 -4.028942 -8.298189 -0.634771 4.542859 -3.629029 -18.381736 -55.118955 -0.701776 1.135806 47.494673 5.377539 17.622408 -34.231473 -8.109099 0.000000 -21.288700 8.359041 1.503291 4.367969 1.191633 16.081920 -55.087930 0.551244 -1.987491 50.793018 -5.127247 -11.564011 -37.343234 6.300600 0.000000 -33.063100
23.975645 15.824476 1.792521 39.961836 -86.442567 -3.645219 -8.295521 -0.723865 4.689719 -3.503524 -18.867493 -57.690635 -0.561417 1.386185 50.759920 5.495666 17.902394 -35.308507 -8.536400 0.000001 -19.832100 8.432209 1.639614 4.504451 0.775987 16.133153 -57.624273 0.358425 -2.268001 54.143654 -5.254074 -12.067520 -38.353325 6.710900 0.000001 -30.732600
23.954649 15.649650 1.799165 40.130938 -86.209128 -2.993350 -8.304538 -0.820293 4.855645 -3.330511 -19.324871 -60.338568 -0.395059 1.638373 54.044511 5.610104 18.233669 -36.264976 -8.945500 0.000000 -18.727200 8.503948 1.776281 4.663855 0.370870 16.176296 -60.215157 0.150902 -2.543633 57.478167 -5.372555 -12.595603 -39.253192 7.114400 -0.000000 -28.979300
23.932065 15.465631 1.806969 40.134510 -85.998082 -2.156759 -8.322565 -0.924467 5.035488 -3.115154 -19.749078 -63.031368 -0.205492 1.890067 57.320911 5.719219 18.604784 -37.106218 -9.335199 0.000000 -18.024700 8.573977 1.913865 4.843121 -0.027438 16.218089 -62.835067 -0.070622 -2.813787 60.777771 -5.479448 -13.128349 -40.044907 7.502500 0.000000 -27.859000
23.907817 15.274047 1.815520 40.056592 -85.811695 -1.230294 -8.347027 -1.035675 5.223367 -2.869687 -20.133671 -65.733778 0.002891 2.139613 60.562267 5.821388 18.998725 -37.846856 -9.704600 0.000000 -17.753100 8.642426 2.052161 5.038259 -0.419770 16.259277 -65.455064 -0.303978 -3.077934 64.019692 -5.572141 -13.643500 -40.738174 7.866600 -0.000000 -27.437200
23.881771 15.076893 1.824425 39.968135 -85.651101 -0.303205 -8.375924 -1.152788 5.411477 -2.612370 -20.471735 -68.401217 0.224285 2.386292 63.743550 5.915263 19.395837 -38.513611 -10.055800 0.000000 -17.880700 8.709902 2.190216 5.241401 -0.798517 16.291318 -68.035722 -0.544833 -3.336443 67.179220 -5.649052 -14.118080 -41.354779 8.201201 0.000000 -27.735700
23.853958 14.876746 1.833197 39.901578 -85.508817 0.582095 -8.406778 -1.273497 5.596153 -2.352765 -20.772074 -70.993933 0.454248 2.627834 66.832405 6.000751 19.784786 -39.125025 -10.390800 0.000000 -18.430599 8.776667 2.328544 5.448119 -1.169114 16.318601 -70.543371 -0.792761 -3.587628 70.238548 -5.714773 -14.562603 -41.917281 8.515501 -0.000000 -28.656300
